<svg width="637" height="381" viewBox="0 0 637 381" fill="none" xmlns="http://www.w3.org/2000/svg">
<path d="M206.707 144.713C198.472 131.576 186.28 121.39 171.888 115.621C157.496 109.853 141.644 108.798 126.615 112.611C111.585 116.423 98.1526 124.905 88.2498 136.836C78.3471 148.768 72.4848 163.533 71.5065 179.008C70.5282 194.482 74.4844 209.868 82.8058 222.951C91.1272 236.035 103.385 246.141 117.814 251.815C132.244 257.49 148.102 258.441 163.106 254.53C178.111 250.62 191.488 242.05 201.312 230.055L181.473 213.806C175.087 221.603 166.392 227.173 156.639 229.715C146.887 232.257 136.579 231.639 127.199 227.951C117.82 224.262 109.853 217.693 104.444 209.189C99.035 200.685 96.4635 190.684 97.0994 180.625C97.7352 170.567 101.546 160.97 107.983 153.214C114.419 145.459 123.151 139.946 132.92 137.468C142.689 134.99 152.992 135.675 162.347 139.424C171.702 143.174 179.627 149.795 184.98 158.334L206.707 144.713Z" fill="url(#paint0_linear_443_238)"/>
<path d="M436.55 144.143C444.786 131.006 456.977 120.82 471.37 115.051C485.762 109.283 501.614 108.229 516.643 112.041C531.673 115.853 545.105 124.335 555.008 136.267C564.911 148.198 570.773 162.963 571.751 178.438C572.73 193.912 568.773 209.298 560.452 222.382C552.131 235.465 539.873 245.571 525.443 251.246C511.014 256.92 495.156 257.871 480.151 253.96C465.147 250.05 451.77 241.481 441.946 229.485L461.785 213.236C468.171 221.033 476.866 226.604 486.619 229.145C496.371 231.687 506.679 231.069 516.058 227.381C525.438 223.692 533.405 217.123 538.814 208.619C544.223 200.115 546.794 190.114 546.158 180.056C545.523 169.997 541.712 160.4 535.275 152.644C528.838 144.889 520.107 139.376 510.338 136.898C500.569 134.42 490.266 135.105 480.91 138.854C471.555 142.604 463.631 149.225 458.278 157.764L436.55 144.143Z" fill="url(#paint1_linear_443_238)"/>
<path d="M499 184.43C496.112 181.66 486.001 179.93 481.001 178.43C456.001 173.43 439.071 170.899 420.04 152.155C419.37 151.512 418.7 150.868 418.01 150.206C412.292 144.652 407.174 138.978 403.046 132.131C398.525 124.668 393.181 118.952 386.909 112.93C386.08 112.118 385.251 111.306 384.398 110.469C366.913 93.642 344.122 83.8133 319.768 83.4306C317.893 83.3849 317.893 83.3849 315.981 83.3383C293.755 83.2671 268.675 90.7002 252.047 106.083C233.518 124.525 219.505 143.016 216.185 169.754C222.262 168.943 227.71 166.637 233.402 164.444C234.511 164.039 235.619 163.634 236.761 163.216C245.626 159.791 248.789 156.498 252.907 147.991C262.377 131.215 278.129 119.817 296.158 113.846C315.277 108.68 334.937 111.543 352.396 120.713C365.218 128.433 378.295 138.018 382.725 151.77C383.279 152.819 383.356 154.46 383.324 155.527C383.253 157.851 382.754 160.526 381.17 162.228C377.525 166.144 374.525 167.065 367.942 167.917C366.501 168.141 366.501 168.141 365.031 168.37C363.051 168.676 361.069 168.97 359.085 169.253C355.655 169.745 352.24 170.31 348.823 170.883C346.405 171.288 343.985 171.681 341.565 172.072C332.106 173.611 322.67 175.282 313.229 176.925C309.177 177.63 305.125 178.333 301.073 179.035C300.106 179.203 299.139 179.371 298.142 179.545C293.889 180.281 289.635 181.008 285.372 181.686C284.689 181.795 284.005 181.904 283.301 182.016C281.536 182.295 280.769 182.636 279.003 182.908C276.503 183.382 273.375 183.546 271 184.429C278 184.361 283.301 184.429 290 184.429C290.998 184.406 293.472 184.454 294.5 184.429C299 184.429 303 184.429 307 184.429C310.162 184.429 313 184.429 316 184.429C316.937 184.404 317.535 184.456 318.5 184.429C319.404 184.408 320.5 184.43 321.5 184.43C322.278 184.41 323.199 184.451 324 184.43C326.556 184.445 328.999 184.43 331.5 184.43C339 184.43 346 184.43 353.5 184.43C355.104 184.396 357.044 184.46 358.648 184.427C363.148 184.427 367 184.43 371.5 184.43C376.029 184.331 380.471 184.525 385 184.43C393.563 184.249 403 184.43 411.5 184.43C421.254 184.219 430.746 184.637 440.5 184.43C460.552 184.005 479.001 184.931 499 184.43Z" fill="url(#paint2_linear_443_238)"/>
<path d="M412.831 213.091C412.396 212.595 411.961 212.099 411.512 211.588C407.371 212.705 403.238 213.846 399.11 215.011C397.707 215.403 396.302 215.788 394.895 216.167C392.865 216.714 390.843 217.285 388.821 217.861C386.996 218.366 386.996 218.366 385.134 218.881C379.541 221.311 376.901 226.163 373.531 231.038C360.317 248.839 342.556 258.304 320.977 261.804C302.476 263.972 283.977 258.405 268.861 247.652C253.837 235.177 244.024 220.015 240.754 200.472C240.525 195.955 240.999 188.93 241.999 184.43C238.499 184.43 235.897 184.517 232.499 184.43C231.571 184.403 229.955 184.458 228.999 184.43C228.036 184.41 226.833 184.532 225.841 184.511C224.903 184.484 223.965 184.457 222.999 184.43C217.405 184.281 212.095 184.405 206.499 184.43C203.523 184.44 200.474 184.472 197.499 184.43C196.367 184.415 195.416 184.528 194.25 184.513C193.103 184.497 191.957 184.48 190.776 184.464C183.659 184.363 176.546 184.289 169.428 184.314C164.032 184.312 158.395 184.506 152.999 184.43C146.508 184.338 139.991 184.454 133.499 184.43C132.659 184.426 131.865 184.433 130.999 184.43C128.913 184.421 129.499 184.43 126.999 184.43C130.827 186.33 134.725 186.771 138.917 187.155C140.067 187.27 140.067 187.27 141.241 187.387C145.446 187.804 149.655 188.187 153.864 188.563C174.41 190.432 195.673 192.56 210.272 208.819C215.438 215.033 218.077 222.365 220.927 229.84C224.795 239.63 230.63 247.216 237.552 255.092C238.229 255.863 238.229 255.863 238.919 256.651C257.166 277.297 279.95 287.242 307.214 289.831C308.13 289.945 309.046 290.058 309.99 290.175C325.367 291.765 341.935 287.49 355.948 281.4C356.876 280.999 356.876 280.999 357.822 280.59C383.247 269.041 407.744 241.114 412.831 213.091Z" fill="url(#paint3_linear_443_238)"/>
<defs>
<linearGradient id="paint0_linear_443_238" x1="71.3614" y1="183.992" x2="217.896" y2="183.269" gradientUnits="userSpaceOnUse">
<stop offset="0.211538" stop-color="#7E4CBD"/>
<stop offset="0.625" stop-color="#9519AA"/>
<stop offset="0.942308" stop-color="#D8C582" stop-opacity="0.94"/>
</linearGradient>
<linearGradient id="paint1_linear_443_238" x1="571.896" y1="183.422" x2="425.361" y2="182.699" gradientUnits="userSpaceOnUse">
<stop offset="0.211538" stop-color="#7E4CBD"/>
<stop offset="0.625" stop-color="#9519AA"/>
<stop offset="0.942308" stop-color="#D8C582" stop-opacity="0.94"/>
</linearGradient>
<linearGradient id="paint2_linear_443_238" x1="286.908" y1="237.589" x2="415.091" y2="103.948" gradientUnits="userSpaceOnUse">
<stop offset="0.211538" stop-color="#7E4CBD"/>
<stop offset="0.625" stop-color="#9519AA"/>
<stop offset="0.942308" stop-color="#D8C582" stop-opacity="0.94"/>
</linearGradient>
<linearGradient id="paint3_linear_443_238" x1="202.315" y1="270.234" x2="349.55" y2="140.997" gradientUnits="userSpaceOnUse">
<stop offset="0.211538" stop-color="#7E4CBD"/>
<stop offset="0.625" stop-color="#9519AA"/>
<stop offset="0.942308" stop-color="#D8C582" stop-opacity="0.94"/>
</linearGradient>
</defs>
</svg>
